<?xml version="1.0" encoding="UTF-8"?>
<svg id="Warstwa_1" data-name="Warstwa 1" xmlns="http://www.w3.org/2000/svg" width="100mm" height="100mm" xmlns:xlink="http://www.w3.org/1999/xlink" version="1.1" viewBox="0 0 283.5 283.5">
  <defs>
    <style>
      .cls-1 {
        clip-path: url(#clippath);
      }

      .cls-2 {
        fill: none;
      }

      .cls-2, .cls-3, .cls-4 {
        stroke-width: 0px;
      }

      .cls-3 {
        fill: #b4b9bc;
      }

      .cls-4 {
        fill: #fff;
      }
    </style>
    <clipPath id="clippath">
      <rect class="cls-2" x="70.9" y="70.9" width="141.7" height="141.7"/>
    </clipPath>
  </defs>
  <g id="Group_26" data-name="Group 26">
    <circle id="Ellipse_1" data-name="Ellipse 1" class="cls-3" cx="141.7" cy="141.7" r="141.7"/>
    <g id="Group_25" data-name="Group 25">
      <g class="cls-1">
        <g id="Group_24" data-name="Group 24">
          <path id="Path_40" data-name="Path 40" class="cls-4" d="M164.4,145.5c17.8,6.2,32.3,19.5,40.2,36.7,4.1,8.9,6.2,18.6,6.1,28.5h-10.6c0-17.3-7.7-33.7-21.1-44.6-11-9.4-25.2-14.2-39.6-13.4-7.4.3-14.7,2-21.5,5.1-20.8,9.4-34.2,30.1-34.2,52.9h-10.8c.1-29.3,18.7-55.4,46.3-65.1-12.1-8.3-18.6-22.7-16.9-37.3.9-10.4,6.1-19.9,14.3-26.3,15.9-13.2,39.2-12,53.6,2.8,5.5,5.5,9.2,12.5,10.7,20.1,1.6,7.6.8,15.5-2.1,22.7-2.9,7.2-7.9,13.5-14.4,17.9M141.8,83.6c-16.1,0-29.1,13.1-29,29.1,0,16.1,13.1,29.1,29.1,29,16.1,0,29.1-13.1,29-29.1,0-16.1-13.1-29-29.1-29"/>
        </g>
      </g>
    </g>
  </g>
</svg>