<?xml version="1.0" encoding="UTF-8"?>
<svg id="Warstwa_1" data-name="Warstwa 1" xmlns="http://www.w3.org/2000/svg" width="100mm" height="100mm" version="1.1" viewBox="0 0 283.5 283.5">
  <defs>
    <style>
      .cls-1 {
        fill: #c8c8c8;
        stroke-width: 0px;
      }
    </style>
  </defs>
  <path class="cls-1" d="M279.2,256.8l-115.1-115.1,115.1-115.1c5.4-6,5.4-15.1,0-21.1-5.8-6.5-15.8-7-22.3-1.2l-115.2,115.2L26.6,4.3C20.5-1.4,11.1-1.4,5,4.3c-6.4,6-6.7,16-.8,22.3l115.1,115.1L4.3,256.8c-5.4,6-5.4,15.1,0,21.1,5.8,6.5,15.8,7,22.3,1.2l115.2-115.2,115.2,115.2c6.1,5.7,15.5,5.7,21.6,0,6.4-6,6.7-16,.8-22.3Z"/>
</svg>