<?xml version="1.0" encoding="UTF-8"?>
<svg id="Warstwa_1" data-name="Warstwa 1" xmlns="http://www.w3.org/2000/svg" width="80mm" height="80mm" version="1.1" viewBox="0 0 226.8 226.8">
  <defs>
    <style>
      .cls-1 {
        fill: #fff;
        stroke-width: 0px;
      }
    </style>
  </defs>
  <path class="cls-1" d="M126.8,113.2L224,16.1c3.7-3.7,3.7-9.7,0-13.3-1.8-1.8-4.1-2.8-6.7-2.8s-4.9,1-6.6,2.7l-97.6,97.4L16,2.8C12.4-.9,6.4-.9,2.8,2.8,1,4.5,0,6.9,0,9.4s1,4.9,2.8,6.7l97.2,97.5L2.8,210.7c-3.7,3.7-3.7,9.7,0,13.3,1.8,1.8,4.1,2.8,6.7,2.8s4.9-1,6.6-2.7l97.6-97.4,97.1,97.4c3.7,3.7,9.6,3.7,13.3,0s3.7-9.7,0-13.3l-97.2-97.5Z"/>
</svg>