<?xml version="1.0" encoding="UTF-8"?>
<svg id="Warstwa_1" data-name="Warstwa 1" xmlns="http://www.w3.org/2000/svg" width="10mm" height="9.9mm" version="1.1" viewBox="0 0 28.3 28.2">
  <defs>
    <style>
      .cls-1 {
        fill: #000;
        stroke-width: 0px;
      }
    </style>
  </defs>
  <g id="edit-2-svgrepo-com">
    <path class="cls-1" d="M3.6,28.2c-1.1,0-2.1-.2-2.7-.8C.3,26.9,0,26,0,24.9c0-2,.7-4.9,2.1-6.2L19.3,1.5C20.3.5,21.7,0,23,0c1.4,0,2.7.6,3.7,1.6,1.9,1.9,1.9,4.9.3,7,0,.1-.1.2-.2.3L9.6,26.1c-1.2,1.2-3.8,2-6,2ZM22.9,2.2c-.8,0-1.6.3-2.1.9L3.6,20.2c-1.2,1.2-1.8,5-1.2,5.6.6.5,4.4,0,5.7-1.2L25,7.7c0,0,.1-.2.2-.2,1.1-1.2,1.1-3.1,0-4.3-.6-.6-1.3-.9-2.2-1,0,0,0,0,0,0Z"/>
    <path class="cls-1" d="M27.3,28.2h-13c-.6,0-1.1-.5-1.1-1.1s.5-1.1,1.1-1.1h13c.6,0,1.1.5,1.1,1.1s-.5,1.1-1.1,1.1Z"/>
  </g>
</svg>