<?xml version="1.0" encoding="UTF-8"?>
<svg id="Warstwa_1" data-name="Warstwa 1" xmlns="http://www.w3.org/2000/svg" version="1.1" viewBox="0 0 141.7 141.7">
  <defs>
    <style>
      .cls-1 {
        fill: #fff;
        stroke-width: 0px;
      }
    </style>
  </defs>
  <path class="cls-1" d="M121,72.9V21.1c0-3.5-2.9-6.4-6.4-6.4h-21.2v-7.4c0-3.6-3-6.6-6.6-6.6s-6.6,3-6.6,6.6v7.4h-39.4v-7.4c0-3.6-3-6.6-6.6-6.6s-6.6,3-6.6,6.6v7.4H6.4c-3.5,0-6.4,2.9-6.4,6.4v96.3c0,3.5,2.9,6.4,6.4,6.4h69c6.3,10.4,17.6,17.4,30.6,17.4,19.7,0,35.7-16,35.7-35.7s-8.5-26.7-20.7-32.4ZM84.1,7.3c0-1.5,1.2-2.7,2.7-2.7s2.7,1.2,2.7,2.7v19c0,1.5-1.2,2.7-2.7,2.7s-2.7-1.2-2.7-2.7V7.3ZM31.5,7.3c0-1.5,1.2-2.7,2.7-2.7s2.7,1.2,2.7,2.7v19c0,1.5-1.2,2.7-2.7,2.7s-2.7-1.2-2.7-2.7V7.3ZM6.4,18.6h21.2v7.7c0,3.6,3,6.6,6.6,6.6s6.6-3,6.6-6.6v-7.7h39.4v7.7c0,3.6,3,6.6,6.6,6.6s6.6-3,6.6-6.6v-7.7h21.2c1.4,0,2.5,1.1,2.5,2.5v27.3H3.9v-27.3c0-1.4,1.1-2.5,2.5-2.5ZM6.4,119.8c-1.4,0-2.5-1.1-2.5-2.5V52.2h113.2v19.2c-3.5-1.1-7.2-1.8-11.1-1.8-19.7,0-35.7,16-35.7,35.7s1.1,10.1,3.1,14.5H6.4ZM106,137.2c-17.6,0-31.8-14.3-31.8-31.8s14.3-31.8,31.8-31.8,31.8,14.3,31.8,31.8-14.3,31.8-31.8,31.8Z"/>
  <path class="cls-1" d="M108.7,105.3c-.5-.5-.7-1.1-.7-1.8v-14.8c0-1.1-.9-1.9-1.9-1.9s-1.9.9-1.9,1.9v14.8c0,1.7.7,3.3,1.9,4.5l15.1,15.1c.4.4.9.6,1.4.6s1-.2,1.4-.6c.8-.8.8-2,0-2.8l-15.1-15.1Z"/>
  <path class="cls-1" d="M29.6,63.2h-14.8c-1.1,0-1.9.9-1.9,1.9s.9,1.9,1.9,1.9h14.8c1.1,0,1.9-.9,1.9-1.9s-.9-1.9-1.9-1.9Z"/>
  <path class="cls-1" d="M55.1,63.2h-14.8c-1.1,0-1.9.9-1.9,1.9s.9,1.9,1.9,1.9h14.8c1.1,0,1.9-.9,1.9-1.9s-.9-1.9-1.9-1.9Z"/>
  <path class="cls-1" d="M29.6,81.9h-14.8c-1.1,0-1.9.9-1.9,1.9s.9,1.9,1.9,1.9h14.8c1.1,0,1.9-.9,1.9-1.9s-.9-1.9-1.9-1.9Z"/>
  <path class="cls-1" d="M55.1,81.9h-14.8c-1.1,0-1.9.9-1.9,1.9s.9,1.9,1.9,1.9h14.8c1.1,0,1.9-.9,1.9-1.9s-.9-1.9-1.9-1.9Z"/>
  <path class="cls-1" d="M29.6,100.6h-14.8c-1.1,0-1.9.9-1.9,1.9s.9,1.9,1.9,1.9h14.8c1.1,0,1.9-.9,1.9-1.9s-.9-1.9-1.9-1.9Z"/>
  <path class="cls-1" d="M55.1,100.6h-14.8c-1.1,0-1.9.9-1.9,1.9s.9,1.9,1.9,1.9h14.8c1.1,0,1.9-.9,1.9-1.9s-.9-1.9-1.9-1.9Z"/>
  <path class="cls-1" d="M82.2,65.2c0-1.1-.9-1.9-1.9-1.9h-14.8c-1.1,0-1.9.9-1.9,1.9s.9,1.9,1.9,1.9h14.8c1.1,0,1.9-.9,1.9-1.9Z"/>
</svg>