<?xml version="1.0" encoding="UTF-8"?>
<svg id="Warstwa_1" data-name="Warstwa 1" xmlns="http://www.w3.org/2000/svg" width="100mm" height="15.5mm" xmlns:xlink="http://www.w3.org/1999/xlink" version="1.1" viewBox="0 0 283.5 44">
  <defs>
    <style>
      .cls-1 {
        clip-path: url(#clippath);
      }

      .cls-2 {
        fill: none;
      }

      .cls-2, .cls-3 {
        stroke-width: 0px;
      }

      .cls-3 {
        fill: #fff;
      }
    </style>
    <clipPath id="clippath">
      <rect class="cls-2" width="283.5" height="44"/>
    </clipPath>
  </defs>
  <g id="Group_9" data-name="Group 9">
    <g class="cls-1">
      <g id="Group_8" data-name="Group 8">
        <path id="Path_20" data-name="Path 20" class="cls-3" d="M6.2,31c.7,4.5,4.7,7.8,9.3,7.5,3.1,0,6.1-1.3,8.3-3.4l2.9,4.2c-3,3-7.1,4.6-11.4,4.6C7.2,44.2.3,37.8,0,29.6c0-.2,0-.4,0-.6-.1-8.1,6.4-14.8,14.5-15,0,0,.2,0,.3,0,7.1-.2,13,5.4,13.2,12.5,0,.2,0,.4,0,.6,0,1.3-.2,2.6-.5,3.8H6.2ZM21.9,26.3c0-3.8-3-7-6.8-7-.2,0-.3,0-.5,0-4.1,0-7.5,3-8.2,7h15.5Z"/>
        <path id="Path_21" data-name="Path 21" class="cls-3" d="M58.8,43.3h-6.1v-17.1c.3-3.4-2.2-6.3-5.5-6.6-.2,0-.5,0-.7,0-3.5-.1-6.4,2.6-6.5,6.1,0,.2,0,.3,0,.5v17.1h-6.1V14.7h5.7v2.8c2.2-2.3,5.3-3.6,8.6-3.4,6.7,0,10.7,4.5,10.7,11.4v17.9Z"/>
        <path id="Path_22" data-name="Path 22" class="cls-3" d="M83.2,43.3c-1.7.4-3.4.6-5.1.6-6.6,0-10.5-3.3-10.5-10v-14h-4.7v-5.3h4.7v-7.5h6.2v7.5h8.5v5.3h-8.5v13.5c0,3.7,1.9,5,5.6,5s2.1-.1,3.8-.3v5.2Z"/>
        <path id="Path_23" data-name="Path 23" class="cls-3" d="M92.1,31c.7,4.5,4.7,7.8,9.3,7.5,3.1,0,6.1-1.3,8.3-3.4l2.9,4.2c-3,3-7.1,4.6-11.4,4.6-8.2.3-15.1-6.1-15.4-14.3,0-.2,0-.4,0-.6-.1-8.1,6.4-14.8,14.5-15,0,0,.2,0,.3,0,7.1-.2,13,5.4,13.2,12.5,0,.2,0,.4,0,.6,0,1.3-.2,2.6-.5,3.8h-21.3ZM107.7,26.3c0-3.8-3-7-6.8-7-.2,0-.3,0-.5,0-4.1,0-7.5,3-8.2,7h15.6Z"/>
        <path id="Path_24" data-name="Path 24" class="cls-3" d="M136.1,20.2h-1.9c-4.2-.4-7.9,2.7-8.4,6.9,0,.3,0,.7,0,1v15.3h-6.1V14.7h5.7v3.7c2-2.5,5.1-4,8.3-4,.8,0,1.6,0,2.3.3v5.4Z"/>
        <path id="Path_25" data-name="Path 25" class="cls-3" d="M166.8,14.7l-13.8,29.2h-2.1l-13.9-29.2h6.5l8.4,18.9,8.3-18.9h6.5Z"/>
        <path id="Path_26" data-name="Path 26" class="cls-3" d="M174.3,0c2.3,0,4.1,1.8,4.1,4.1,0,0,0,0,0,0,0,2.3-2,4.1-4.3,4-2.2,0-3.9-1.8-4-4,0-2.3,1.9-4.1,4.2-4.1,0,0,0,0,0,0M171.2,14.7h6.1v28.6h-6.1V14.7Z"/>
        <path id="Path_27" data-name="Path 27" class="cls-3" d="M185.8,34.6c2,2.4,4.9,3.9,8,4.1,2.6,0,4.6-1.1,4.6-3.2s-1.2-2.4-4-3.6l-2.9-1.2c-5.1-2.1-7.5-4.3-7.5-8.3s4.3-8.3,10.1-8.3c3.8-.1,7.5,1.5,9.9,4.4l-3.3,3.8c-1.7-1.8-4.2-2.9-6.7-2.9-2.4,0-3.9.9-3.9,2.7s1,2.2,3.8,3.4l2.7,1.1c5.4,2.3,7.8,4.6,7.8,8.6.1,2.5-1,4.9-3,6.5-2.2,1.6-4.9,2.4-7.6,2.3-4.5,0-8.8-2-11.5-5.5l3.5-3.8Z"/>
        <path id="Path_28" data-name="Path 28" class="cls-3" d="M213.4,0c2.3,0,4.1,1.8,4.1,4.1,0,0,0,0,0,0,0,2.3-2,4.1-4.3,4-2.2,0-3.9-1.8-4-4,0-2.3,1.9-4.1,4.2-4.1,0,0,0,0,0,0M210.4,14.7h6.1v28.6h-6.1V14.7Z"/>
        <path id="Path_29" data-name="Path 29" class="cls-3" d="M237.4,14.1c8.2,0,14.9,6.8,14.8,15.1,0,8.2-6.8,14.9-15.1,14.8-8.2,0-14.8-6.8-14.8-15,0-8.3,6.8-14.9,15-14.9,0,0,0,0,0,0M237.5,19.7c-5,0-9,4.1-8.9,9.1,0,.1,0,.2,0,.3-.2,4.9,3.6,9.1,8.5,9.3,4.9.2,9.1-3.6,9.3-8.5,0-.3,0-.5,0-.8.2-5-3.7-9.2-8.6-9.4,0,0-.1,0-.2,0"/>
        <path id="Path_30" data-name="Path 30" class="cls-3" d="M283.5,43.3h-6.1v-17.1c.3-3.4-2.2-6.3-5.5-6.6-.2,0-.5,0-.7,0-3.5-.1-6.4,2.6-6.5,6.1,0,.2,0,.3,0,.5v17.1h-6.1V14.7h5.7v2.8c2.2-2.3,5.3-3.6,8.6-3.4,6.7,0,10.7,4.5,10.7,11.4v17.9Z"/>
      </g>
    </g>
  </g>
</svg>