<?xml version="1.0" encoding="UTF-8"?>
<svg id="Warstwa_1" data-name="Warstwa 1" xmlns="http://www.w3.org/2000/svg" width="29.9mm" height="50mm" version="1.1" viewBox="0 0 84.8 141.7">
  <defs>
    <style>
      .cls-1 {
        fill: #fff;
        stroke-width: 0px;
      }
    </style>
  </defs>
  <g id="Group_8" data-name="Group 8">
    <path id="Path_20" data-name="Path 20" class="cls-1" d="M21.8,44.9c1.8,11.9,12.4,20.6,24.5,19.8,8.2,0,16.1-3.4,21.9-9l7.7,11.1c-7.9,7.9-18.7,12.1-30.1,12.1-21.4.8-39.6-16.1-40.4-37.7v-1.6C5.2,18.2,22.4.5,43.7,0h.8c18.7-.5,34.3,14.2,34.8,33v1.6c0,3.4-.5,6.9-1.3,10H21.8v.3ZM63.3,32.5c0-10-7.9-18.5-17.9-18.5h-1.3c-10.8,0-19.8,7.9-21.6,18.5h40.9Z"/>
  </g>
</svg>