<?xml version="1.0" encoding="UTF-8"?>
<svg id="Warstwa_1" data-name="Warstwa 1" xmlns="http://www.w3.org/2000/svg" width="100mm" height="100mm" version="1.1" viewBox="0 0 283.5 283.5">
  <defs>
    <style>
      .cls-1 {
        fill: #fff;
        stroke-width: 0px;
      }
    </style>
  </defs>
  <g id="Group_28" data-name="Group 28">
    <path id="Path_41" data-name="Path 41" class="cls-1" d="M0,141.6V36.4C-.3,25.9,4.2,15.8,12.1,8.9,18.5,3.1,27-.1,35.7,0h105c4.8-.3,9.3,2.5,11.2,6.9,2,4.1,1.3,9.1-1.8,12.5-1.9,2.3-4.6,3.7-7.5,4-1.2.1-2.4.2-3.6.2-34.1,0-68.2,0-102.3,0-4.1-.4-8.1,1.3-10.6,4.6-1.1,1.9-2,4-2.5,6.1-.2.9-.2,1.8-.1,2.8v209.3c-.3,4.1,1.4,8.1,4.5,10.8,2.4,1.9,5.5,2.8,8.6,2.7h103.7c4.6-.4,9,2,11.3,6,3.2,5.6,1.2,12.8-4.4,16-1.8,1-3.8,1.6-5.9,1.5H36.6c-6.1.2-12.1-1.2-17.5-4-9.8-5-16.6-14.4-18.4-25.2-.5-2.7-.7-5.5-.7-8.3v-104.3"/>
    <path id="Path_42" data-name="Path 42" class="cls-1" d="M242.3,153.5H107.2c-3.9.3-7.6-1.3-10.2-4.2-2.9-3.3-3.6-7.9-1.9-11.9,1.4-4,5-6.8,9.2-7.3,1.2-.2,2.4-.2,3.6-.2h134.9c-.7-.8-1-1.4-1.5-1.8-16.1-16-32.2-32-48.4-47.9-3.7-3.1-5.2-8-4-12.7,1.7-6.2,8.1-9.7,14.3-8,1.5.4,2.9,1.2,4.1,2.1,6.2,5.6,12,11.5,18,17.4,17.9,17.7,35.7,35.3,53.5,53,2.6,2.2,4.2,5.3,4.6,8.6.3,3.8-1.2,7.4-4,9.9-6.1,6-12.2,12.1-18.3,18.2-17.1,16.9-34.2,33.9-51.3,50.8-3.2,3.8-8.3,5.4-13.1,4.1-6.1-1.9-9.6-8.3-7.7-14.5.5-1.5,1.2-2.9,2.2-4.1,6-6.5,12.4-12.6,18.7-18.8,10.4-10.3,20.8-20.6,31.1-30.8.5-.5,1-1.1,1.5-1.6l-.2-.6"/>
  </g>
</svg>