<?xml version="1.0" encoding="UTF-8"?>
<svg id="Warstwa_1" data-name="Warstwa 1" xmlns="http://www.w3.org/2000/svg" width="10mm" height="8.3mm" xmlns:xlink="http://www.w3.org/1999/xlink" version="1.1" viewBox="0 0 28.3 23.6">
  <defs>
    <style>
      .cls-1 {
        clip-path: url(#clippath);
      }

      .cls-2 {
        fill: none;
      }

      .cls-2, .cls-3 {
        stroke-width: 0px;
      }

      .cls-3 {
        fill: #fff;
      }
    </style>
    <clipPath id="clippath">
      <rect class="cls-2" width="28.3" height="23.6"/>
    </clipPath>
  </defs>
  <g class="cls-1">
    <g id="Group_4" data-name="Group 4">
      <path id="Path_12" data-name="Path 12" class="cls-3" d="M26.5,0H1.9C.8,0,0,.8,0,1.9v19.9c0,1,.8,1.9,1.9,1.9h24.6c1,0,1.9-.8,1.9-1.9V1.9c0-1-.8-1.9-1.9-1.9M27.2,21.8h0c0,.4-.3.7-.7.7H1.9c-.4,0-.7-.3-.7-.7h0V1.9c0-.4.3-.7.7-.7h24.6c.4,0,.7.3.7.7v19.9Z"/>
      <path id="Path_13" data-name="Path 13" class="cls-3" d="M25.4,2.4H3c-.3,0-.6.3-.6.6h0v16.3c0,.3.3.6.6.6h22.4c.3,0,.6-.3.6-.6h0V3c0-.3-.3-.6-.6-.6h0M24.8,18.6H3.5V3.5h21.3v15.1Z"/>
      <path id="Path_14" data-name="Path 14" class="cls-3" d="M11.5,13.8c.4.7,1.3.9,1.9.5l1.7-1h0s1.7-1,1.7-1c.7-.4.9-1.2.5-1.9-.1-.2-.3-.4-.5-.5l-1.7-1h0s-1.7-1-1.7-1c-.7-.4-1.5-.2-2,.4-.1.2-.2.5-.2.8v4h0c0,.3,0,.5.2.7M12.4,9.1h0c0-.1.1-.2.2-.2,0,0,0,0,.1,0h0s1.7,1,1.7,1h0s0,0,0,0l1.7,1c.1,0,.2.2,0,.3,0,0,0,0,0,0,0,0,0,0,0,0h0l-1.7,1h0s-1.7,1-1.7,1c0,0,0,0-.1,0-.1,0-.2-.1-.2-.2h0s0-4,0-4Z"/>
      <path id="Path_15" data-name="Path 15" class="cls-3" d="M5.3,11.4c.3,0,.6-.3.6-.6h0c0-.3-.3-.6-.6-.6s-.6.3-.6.6h0c0,.3.3.6.6.6h0"/>
      <path id="Path_16" data-name="Path 16" class="cls-3" d="M5.3,17.5c.3,0,.6-.3.6-.6h0v-4.4c0-.3-.3-.6-.6-.6s-.6.3-.6.6v4.4c0,.3.3.6.6.6h0"/>
      <path id="Path_17" data-name="Path 17" class="cls-3" d="M23,10.8c-.3,0-.6.3-.6.6h0c0,.3.3.6.6.6s.6-.3.6-.6h0c0-.3-.3-.6-.6-.6"/>
      <path id="Path_18" data-name="Path 18" class="cls-3" d="M23,10.3c.3,0,.6-.3.6-.6v-4.4c0-.3-.3-.6-.6-.6s-.6.3-.6.6v4.4c0,.3.3.6.6.6"/>
      <path id="Path_19" data-name="Path 19" class="cls-3" d="M14.2,20.4c-.4,0-.7.3-.7.7s.3.7.7.7.7-.3.7-.7c0-.4-.3-.7-.7-.7"/>
    </g>
  </g>
</svg>