<?xml version="1.0" encoding="UTF-8"?>
<svg id="Warstwa_1" data-name="Warstwa 1" xmlns="http://www.w3.org/2000/svg" version="1.1" viewBox="0 0 141.7 141.7">
  <defs>
    <style>
      .cls-1 {
        fill: #fff;
        stroke-width: 0px;
      }
    </style>
  </defs>
  <path class="cls-1" d="M134.1,104.9H7.7c-4.2,0-7.7-3.4-7.7-7.7V16.6c0-4.2,3.4-7.7,7.7-7.7h126.4c4.2,0,7.7,3.4,7.7,7.7v80.7c0,4.2-3.4,7.7-7.7,7.7h0ZM7.7,13c-2,0-3.7,1.6-3.7,3.7v80.7c0,2,1.6,3.7,3.7,3.7h126.4c2,0,3.7-1.6,3.7-3.7V16.6c0-2-1.6-3.7-3.7-3.7H7.7Z"/>
  <path class="cls-1" d="M134.1,132.8H7.7c-4.2,0-7.7-3.4-7.7-7.7s3.4-7.7,7.7-7.7h126.4c4.2,0,7.7,3.4,7.7,7.7s-3.4,7.7-7.7,7.7ZM7.7,121.4c-2,0-3.7,1.6-3.7,3.7s1.6,3.7,3.7,3.7h126.4c2,0,3.7-1.6,3.7-3.7s-1.6-3.7-3.7-3.7H7.7Z"/>
  <path class="cls-1" d="M52.8,80.8c-1.3,0-2.6-.3-3.8-1-2.4-1.4-3.8-3.9-3.8-6.6v-32.3c0-2.8,1.4-5.3,3.8-6.6,2.4-1.4,5.3-1.4,7.7,0l28,16.2c2.4,1.4,3.8,3.9,3.8,6.6s-1.4,5.3-3.8,6.6l-28,16.2c-1.2.7-2.5,1-3.8,1h0ZM52.8,37.1c-.6,0-1.3.2-1.8.5-1.1.7-1.8,1.9-1.8,3.2v32.3c0,1.3.7,2.5,1.8,3.2s2.5.7,3.7,0l28-16.2c1.1-.7,1.8-1.9,1.8-3.2s-.7-2.5-1.8-3.2l-28-16.2c-.6-.3-1.2-.5-1.8-.5h0Z"/>
</svg>