<?xml version="1.0" encoding="UTF-8"?>
<svg id="Warstwa_1" data-name="Warstwa 1" xmlns="http://www.w3.org/2000/svg" width="100mm" height="111.5mm" version="1.1" viewBox="0 0 283.5 316.1">
  <defs>
    <style>
      .cls-1 {
        fill: #fff;
        stroke-width: 0px;
      }
    </style>
  </defs>
  <g id="Group_34" data-name="Group 34">
    <path id="Path_43" data-name="Path 43" class="cls-1" d="M197,270.5c-6,30.6-35.6,50.6-66.2,44.6-22.6-4.4-40.2-22-44.6-44.6H24.4c-12.6.9-23.4-8.6-24.3-21.2-.4-6,1.6-11.9,5.5-16.5,6.9-9.2,13.3-18.8,19.7-28.3,2.6-4,3.9-8.6,3.8-13.3,0-26.1-.5-52.1,0-78.2-1-45,25.6-86,67.2-103.3,56.6-25.2,122.9.2,148.2,56.8,3,6.7,5.3,13.7,7,20.9,1.8,8.7,2.8,17.6,2.9,26.5.4,25.6.2,51.2,0,76.8-.1,5.5,1.6,11,4.8,15.5,6.7,9.5,13.4,19,20,28.5,5.1,6.7,5.8,15.9,1.8,23.3-3.5,7.7-11.3,12.6-19.8,12.4-20.1.2-40.1,0-60.2,0h-3.9M260.6,247.7c-6.8-9.8-13.3-19.3-19.9-28.6-6-8.4-9.1-18.4-8.9-28.7.1-25.2,0-50.5,0-75.7s-.2-7.7-.6-11.6c-5.3-49.5-49.8-85.2-99.3-79.9-45.6,4.9-80.2,43.3-80.4,89.1-.1,26.1,0,52.1,0,78.2.1,10.3-3,20.3-9,28.7-6,8.4-11.8,16.9-17.7,25.4l-2.1,3.1h237.8ZM173.1,270.6h-62.7c4.3,12.9,16.2,21.8,29.8,22.4,14.7.6,28.1-8.5,32.9-22.4"/>
  </g>
</svg>