<?xml version="1.0" encoding="UTF-8"?>
<svg id="Warstwa_1" data-name="Warstwa 1" xmlns="http://www.w3.org/2000/svg" version="1.1" viewBox="0 0 141.7 141.7">
  <defs>
    <style>
      .cls-1 {
        fill: #fff;
        stroke-width: 0px;
      }
    </style>
  </defs>
  <path class="cls-1" d="M134.6,34H43.6c-3.9,0-7.1-3.2-7.1-7.1v-.9c0-3.9,3.2-7.1,7.1-7.1h91c3.9,0,7.1,3.2,7.1,7.1v.9c0,3.9-3.2,7.1-7.1,7.1ZM43.6,22.7c-1.9,0-3.4,1.5-3.4,3.4v.9c0,1.9,1.5,3.4,3.4,3.4h91c1.9,0,3.4-1.5,3.4-3.4v-.9c0-1.9-1.5-3.4-3.4-3.4H43.6Z"/>
  <path class="cls-1" d="M4.5,38.4c-.8,0-1.5-.2-2.2-.6-1.4-.8-2.2-2.3-2.2-3.9v-14.8c0-1.6.8-3.1,2.2-3.9,1.4-.8,3.1-.8,4.5,0l12.8,7.4c1.4.8,2.2,2.3,2.2,3.9,0,1.6-.8,3.1-2.2,3.9l-12.8,7.4c-.7.4-1.5.6-2.2.6ZM4.5,18.3c-.2,0-.3,0-.4.1-.1,0-.4.3-.4.7v14.8c0,.4.2.6.4.7.1,0,.4.2.8,0l12.8-7.4c.3-.2.4-.5.4-.7,0-.2,0-.5-.4-.7l-12.8-7.4c-.1,0-.3-.1-.4-.1Z"/>
  <path class="cls-1" d="M134.6,78.4H43.6c-3.9,0-7.1-3.2-7.1-7.1v-.9c0-3.9,3.2-7.1,7.1-7.1h91c3.9,0,7.1,3.2,7.1,7.1v.9c0,3.9-3.2,7.1-7.1,7.1ZM43.6,67c-1.9,0-3.4,1.5-3.4,3.4v.9c0,1.9,1.5,3.4,3.4,3.4h91c1.9,0,3.4-1.5,3.4-3.4v-.9c0-1.9-1.5-3.4-3.4-3.4H43.6Z"/>
  <path class="cls-1" d="M4.5,82.8c-.8,0-1.5-.2-2.2-.6-1.4-.8-2.2-2.3-2.2-3.9v-14.8c0-1.6.8-3.1,2.2-3.9,1.4-.8,3.1-.8,4.5,0l12.8,7.4c1.4.8,2.2,2.3,2.2,3.9,0,1.6-.8,3.1-2.2,3.9l-12.8,7.4c-.7.4-1.5.6-2.2.6ZM4.5,62.7c-.2,0-.3,0-.4.1-.1,0-.4.3-.4.7v14.8c0,.4.2.6.4.7.1,0,.4.2.8,0l12.8-7.4c.3-.2.4-.5.4-.7,0-.2,0-.5-.4-.7l-12.8-7.4c-.1,0-.3-.1-.4-.1Z"/>
  <path class="cls-1" d="M134.6,122.8H43.6c-3.9,0-7.1-3.2-7.1-7.1v-.9c0-3.9,3.2-7.1,7.1-7.1h91c3.9,0,7.1,3.2,7.1,7.1v.9c0,3.9-3.2,7.1-7.1,7.1ZM43.6,111.4c-1.9,0-3.4,1.5-3.4,3.4v.9c0,1.9,1.5,3.4,3.4,3.4h91c1.9,0,3.4-1.5,3.4-3.4v-.9c0-1.9-1.5-3.4-3.4-3.4H43.6Z"/>
  <path class="cls-1" d="M4.5,127.1c-.8,0-1.5-.2-2.2-.6-1.4-.8-2.2-2.3-2.2-3.9v-14.8c0-1.6.8-3.1,2.2-3.9,1.4-.8,3.1-.8,4.5,0l12.8,7.4c1.4.8,2.2,2.3,2.2,3.9s-.8,3.1-2.2,3.9l-12.8,7.4c-.7.4-1.5.6-2.2.6ZM4.5,107.1c-.2,0-.3,0-.4.1-.1,0-.4.3-.4.7v14.8c0,.4.2.6.4.7.1,0,.4.2.8,0l12.8-7.4c.3-.2.4-.5.4-.7s0-.5-.4-.7l-12.8-7.4c-.1,0-.3-.1-.4-.1Z"/>
</svg>