<?xml version="1.0" encoding="UTF-8"?>
<svg id="Warstwa_1" data-name="Warstwa 1" xmlns="http://www.w3.org/2000/svg" version="1.1" viewBox="0 0 141.7 141.7">
  <defs>
    <style>
      .cls-1 {
        fill: #fff;
        stroke-width: 0px;
      }
    </style>
  </defs>
  <path class="cls-1" d="M130.9,12.3C123.3,4.3,112.6-.2,101.5,0c-21,.4-37.9,17.2-38.6,38.1,0,.5,0,.9,0,1.4-4.9-1.1-9.9-1.5-15-1.1C21.8,40.3,1.3,61.4,0,87.6c-.7,14.3,4.4,27.8,14.3,38.2,9.9,10.3,23.1,16,37.4,16s19.6-2.8,27.9-8.2c9.6,8,20,9.7,26.8,4.3,1.3-1,1.9-2.7,1.5-4.4-.4-1.7-1.6-2.9-3.3-3.3-3.5-.8-9.3-3.5-9.3-12.4,5.3-8.3,8.1-17.9,8.1-27.8s-.4-7.5-1.2-11.2c1.5,0,3.1,0,4.6-.2,18.8-2.1,33.4-17.4,34.8-36.2.8-11.2-3-21.9-10.7-30ZM91.8,116.1l-.3.5v.6c-.2,8.7,4.4,15,12.3,16.8.3,0,.3.3.4.4,0,.1,0,.3-.2.5-5.5,4.4-14.5,2.3-22.9-5.2l-1.1-1-1.3.9c-8,5.4-17.3,8.3-27,8.3s-25.5-5.3-34.6-14.8c-9.1-9.5-13.8-22.1-13.2-35.3,1.1-24.2,20.1-43.7,44.2-45.4,5.1-.4,10.1,0,15,1.3,1.1,10.7,6.6,20.5,15.2,27.1.3,1.3-.2,1.9-.7,2.4-1.3,1.2-1.7,2.9-1.2,4.6.5,1.6,1.9,2.8,3.5,3,.7.1,1.5.2,2.2.2,3.4,0,6.9-1.1,10.5-3.3,1.8.4,3.6.8,5.4,1,.9,3.7,1.4,7.6,1.4,11.4,0,9.3-2.7,18.3-7.8,26.1ZM137.7,42c-1.2,17-14.4,30.7-31.3,32.6-4.5.5-9.1.2-13.5-1l-.8-.2-.7.5c-3.8,2.4-7.5,3.5-10.7,3-.2,0-.3-.1-.4-.3,0-.1,0-.4.2-.6,1.3-1.3,2.7-3.5,1.6-7l-.2-.6-.5-.4c-9.4-6.9-14.8-18.1-14.4-29.7.6-18.9,15.9-34,34.8-34.4,10-.2,19.6,3.8,26.5,11.1,7,7.3,10.4,16.9,9.7,27.1Z"/>
  <path class="cls-1" d="M51.7,102.7c-5.3,0-9.7,4.3-9.7,9.7s4.3,9.7,9.7,9.7,9.7-4.3,9.7-9.7-4.3-9.7-9.7-9.7ZM51.7,118.1c-3.2,0-5.8-2.6-5.8-5.8s2.6-5.8,5.8-5.8,5.8,2.6,5.8,5.8-2.6,5.8-5.8,5.8Z"/>
  <path class="cls-1" d="M47.2,93.8h8.1c2.3,0,4.3-1.8,4.4-4.2l1.5-26.5c0-1.2-.4-2.4-1.2-3.3-.8-.9-2-1.4-3.2-1.4h-11c-1.2,0-2.4.5-3.2,1.4-.8.9-1.3,2.1-1.2,3.3l1.5,26.5c.1,2.3,2.1,4.2,4.4,4.2ZM45.4,62.5c0,0,.2-.2.4-.2h11c.2,0,.3,0,.4.2,0,0,.2.2.1.4l-1.5,26.5c0,.3-.2.5-.5.5h-8.1c-.3,0-.5-.2-.5-.5l-1.5-26.5c0-.2,0-.3.1-.4Z"/>
  <path class="cls-1" d="M119,28.9h-33.4c-1.1,0-1.9.9-1.9,1.9s.9,1.9,1.9,1.9h33.4c1.1,0,1.9-.9,1.9-1.9s-.9-1.9-1.9-1.9Z"/>
  <path class="cls-1" d="M119,46h-33.4c-1.1,0-1.9.9-1.9,1.9s.9,1.9,1.9,1.9h33.4c1.1,0,1.9-.9,1.9-1.9s-.9-1.9-1.9-1.9Z"/>
</svg>