<?xml version="1.0" encoding="UTF-8"?>
<svg id="Warstwa_1" data-name="Warstwa 1" xmlns="http://www.w3.org/2000/svg" version="1.1" viewBox="0 0 141.7 141.7">
  <defs>
    <style>
      .cls-1 {
        fill: #fff;
        stroke-width: 0px;
      }
    </style>
  </defs>
  <path class="cls-1" d="M134.3,13H7.5c-4.1,0-7.5,3.3-7.5,7.5v75.2c0,4.1,3.3,7.5,7.5,7.5h45l-4.6,21.8h-9.6c-1.1,0-1.9.9-1.9,1.9s.9,1.9,1.9,1.9h65.1c1.1,0,1.9-.9,1.9-1.9s-.9-1.9-1.9-1.9h-9.6l-4.6-21.8h45c4.1,0,7.5-3.3,7.5-7.5V20.4c0-4.1-3.3-7.5-7.5-7.5ZM89.9,124.9h-38l4.6-21.8h28.9l4.6,21.8ZM137.8,95.7c0,2-1.6,3.6-3.6,3.6H7.5c-2,0-3.6-1.6-3.6-3.6V20.4c0-2,1.6-3.6,3.6-3.6h126.8c2,0,3.6,1.6,3.6,3.6v75.2Z"/>
</svg>