<?xml version="1.0" encoding="UTF-8"?>
<svg id="Warstwa_1" data-name="Warstwa 1" xmlns="http://www.w3.org/2000/svg" version="1.1" viewBox="0 0 141.7 141.7">
  <defs>
    <style>
      .cls-1 {
        fill: #fff;
        stroke-width: 0px;
      }
    </style>
  </defs>
  <path class="cls-1" d="M56.9,141.7c-2.6,0-4.8-1.9-5.2-4.5l-2.4-17.2c-3.6-1.6-7-3.6-10.2-5.9l-16.2,6.5c-2.5,1-5.3,0-6.6-2.3l-13.8-23.9c-1.4-2.3-.8-5.2,1.3-6.9l13.7-10.7c-.2-2-.3-3.9-.4-5.9,0-2,.1-4,.4-5.9l-13.7-10.8c-2.1-1.6-2.7-4.6-1.3-6.9l13.8-23.9c1.3-2.3,4.1-3.3,6.6-2.3l16.3,6.5c3.2-2.3,6.6-4.3,10.2-5.9l2.4-17.2C52.2,1.9,54.5,0,57.1,0h27.7s0,0,0,0c2.6,0,4.8,1.9,5.2,4.5l2.4,17.2c3.6,1.6,7,3.6,10.2,5.9l16.2-6.5c2.5-1,5.3,0,6.6,2.3l13.8,23.9c1.4,2.3.8,5.2-1.3,6.9l-13.7,10.7c.2,2,.3,3.9.4,5.9,0,2-.1,4-.4,5.9l13.6,10.8c2.1,1.6,2.7,4.6,1.3,6.9l-13.8,23.9c-1.3,2.3-4.1,3.3-6.6,2.3l-16.2-6.5c-3.2,2.3-6.6,4.3-10.2,5.9l-2.4,17.2c-.4,2.6-2.6,4.5-5.2,4.5h-27.7ZM39.4,110c.4,0,.8.1,1.2.4,3.4,2.6,7.2,4.8,11.2,6.5.6.3,1.1.8,1.1,1.5l2.6,18.3c.1.7.7,1.3,1.5,1.3h27.6c.7,0,1.4-.5,1.5-1.3l2.6-18.3c0-.7.5-1.2,1.2-1.5,4-1.7,7.8-3.8,11.2-6.5.5-.4,1.2-.5,1.9-.3l17.2,6.9c.7.3,1.5,0,1.8-.6l13.8-24c.4-.7.2-1.5-.4-2l-14.5-11.4c-.5-.4-.8-1.1-.7-1.7.3-2.2.4-4.3.5-6.5,0-2.1-.2-4.3-.5-6.5,0-.7.2-1.3.7-1.7l14.6-11.4c.6-.5.8-1.3.4-1.9l-13.8-24c-.4-.7-1.2-1-1.9-.7l-17.2,6.9c-.6.2-1.3.2-1.9-.3-3.4-2.6-7.2-4.8-11.2-6.5-.6-.3-1.1-.8-1.1-1.5l-2.6-18.3c-.1-.7-.7-1.3-1.5-1.3h-27.7c-.8,0-1.4.5-1.5,1.3l-2.6,18.3c0,.7-.5,1.2-1.2,1.5-4,1.7-7.8,3.8-11.2,6.5-.5.4-1.2.5-1.9.3l-17.3-6.9c-.7-.3-1.5,0-1.8.6l-13.8,24c-.4.7-.2,1.5.4,2l14.6,11.4c.5.4.8,1.1.7,1.7-.3,2.2-.4,4.3-.5,6.5,0,2.1.2,4.3.5,6.5,0,.7-.2,1.3-.7,1.7l-14.5,11.4c-.6.5-.8,1.3-.4,1.9l13.8,24c.4.7,1.2.9,1.9.7l17.2-6.9c.2,0,.5-.1.7-.1ZM70.8,96.9c-14.4,0-26.1-11.7-26.1-26,0-14.4,11.7-26.1,26-26.1h0c14.4,0,26.1,11.7,26.1,26,0,14.4-11.6,26.1-26,26.1h0ZM70.8,48.6h0c-12.3,0-22.3,10-22.3,22.3,0,12.3,10,22.3,22.3,22.3s0,0,0,0h0c12.3,0,22.2-10,22.2-22.3,0-12.3-10-22.3-22.3-22.3Z"/>
</svg>